<?xml version="1.0" encoding="UTF-8" standalone="no"?>
<svg
   xmlns:dc="http://purl.org/dc/elements/1.1/"
   xmlns:cc="http://creativecommons.org/ns#"
   xmlns:rdf="http://www.w3.org/1999/02/22-rdf-syntax-ns#"
   xmlns:svg="http://www.w3.org/2000/svg"
   xmlns="http://www.w3.org/2000/svg"
   viewBox="0 0 1440 1440"
   height="1440"
   width="1440"
   xml:space="preserve"
   id="svg2"
   version="1.1"><metadata
     id="metadata8"><rdf:RDF><cc:Work
         rdf:about=""><dc:format>image/svg+xml</dc:format><dc:type
           rdf:resource="http://purl.org/dc/dcmitype/StillImage" /></cc:Work></rdf:RDF></metadata><defs
     id="defs6" /><g
     transform="matrix(1.3333333,0,0,-1.3333333,0,1440)"
     id="g10"><g
       transform="scale(0.1)"
       id="g12"><path
         id="path14"
         style="fill:#000080;fill-opacity:1;fill-rule:nonzero;stroke:none"
         d="m 9190.39,5120 c 0,1999.48 -1620.91,3620.39 -3620.39,3620.39 -1999.48,0 -3620.39,-1620.91 -3620.39,-3620.39 0,-1999.48 1620.91,-3620.39 3620.39,-3620.39 1999.48,0 3620.39,1620.91 3620.39,3620.39" /><path
         id="path16"
         style="fill:#ffffff;fill-opacity:1;fill-rule:nonzero;stroke:none"
         d="M 8130,6619.61 C 8130,7205.25 7655.25,7680 7069.61,7680 c -585.63,0 -1060.38,-474.75 -1060.38,-1060.39 0,-585.63 474.75,-1060.38 1060.38,-1060.38 585.64,0 1060.39,474.75 1060.39,1060.38" /><path
         id="path18"
         style="fill:#000080;fill-opacity:1;fill-rule:nonzero;stroke:none"
         d="m 10250.8,8740.39 c 0,585.63 -474.78,1060.38 -1060.41,1060.38 C 8604.75,9800.77 8130,9326.02 8130,8740.39 8130,8154.75 8604.75,7680 9190.39,7680 c 585.63,0 1060.41,474.75 1060.41,1060.39" /><g
         transform="scale(10)"
         id="g20"><text
           id="text24"
           style="font-variant:normal;font-weight:normal;font-size:325.83499146px;font-family:Helvetica;-inkscape-font-specification:Helvetica;writing-mode:lr-tb;fill:#ffffff;fill-opacity:1;fill-rule:nonzero;stroke:none"
           transform="matrix(1,0,0,-1,285.254,330.981)"><tspan
             id="tspan22"
             y="0"
             x="0 181.16426 362.32852">Lua</tspan></text>
</g><path
         id="path26"
         style="fill:none;stroke:#808080;stroke-width:108.61199951;stroke-linecap:butt;stroke-linejoin:miter;stroke-miterlimit:10;stroke-dasharray:408.475;stroke-dashoffset:0;stroke-opacity:1"
         d="M 9740.6,7245.03 C 10075.9,6586.86 10250.8,5858.67 10250.8,5120 10250.8,2534.88 8155.12,439.227 5570,439.227 2984.88,439.227 889.227,2534.88 889.227,5120 c 0,2585.12 2095.653,4680.77 4680.773,4680.77 904.9,0 1790.41,-262.3 2549.33,-755.14" /></g></g></svg>