<?xml version="1.0" encoding="UTF-8" standalone="no"?>
<svg
   viewBox="0 0 1440 1440"
   height="1440"
   width="1440"
   xml:space="preserve"
   id="svg2"
   version="1.1"
   sodipodi:docname="lrdb-icon.svg"
   inkscape:version="1.2.1 (9c6d41e410, 2022-07-14)"
   inkscape:export-filename="lrdb-icon-big.png"
   inkscape:export-xdpi="19.475138"
   inkscape:export-ydpi="19.475138"
   xmlns:inkscape="http://www.inkscape.org/namespaces/inkscape"
   xmlns:sodipodi="http://sodipodi.sourceforge.net/DTD/sodipodi-0.dtd"
   xmlns="http://www.w3.org/2000/svg"
   xmlns:svg="http://www.w3.org/2000/svg"
   xmlns:rdf="http://www.w3.org/1999/02/22-rdf-syntax-ns#"
   xmlns:cc="http://creativecommons.org/ns#"
   xmlns:dc="http://purl.org/dc/elements/1.1/"><sodipodi:namedview
     id="namedview41"
     pagecolor="#ffffff"
     bordercolor="#000000"
     borderopacity="0.25"
     inkscape:showpageshadow="2"
     inkscape:pageopacity="0.0"
     inkscape:pagecheckerboard="0"
     inkscape:deskcolor="#d1d1d1"
     showgrid="false"
     inkscape:zoom="0.71319444"
     inkscape:cx="431.85979"
     inkscape:cy="720"
     inkscape:window-width="1350"
     inkscape:window-height="1230"
     inkscape:window-x="1263"
     inkscape:window-y="81"
     inkscape:window-maximized="0"
     inkscape:current-layer="svg2" /><metadata
     id="metadata8"><rdf:RDF><cc:Work
         rdf:about=""><dc:format>image/svg+xml</dc:format><dc:type
           rdf:resource="http://purl.org/dc/dcmitype/StillImage" /></cc:Work></rdf:RDF></metadata><defs
     id="defs6"><style
       id="style56">.cls-1{fill:none;}</style></defs><g
     transform="matrix(1.3333333,0,0,-1.3333333,0,1440)"
     id="g10"><g
       transform="scale(0.1)"
       id="g12"><path
         id="path14"
         style="fill:#000080;fill-opacity:1;fill-rule:nonzero;stroke:none"
         d="m 9190.39,5120 c 0,1999.48 -1620.91,3620.39 -3620.39,3620.39 -1999.48,0 -3620.39,-1620.91 -3620.39,-3620.39 0,-1999.48 1620.91,-3620.39 3620.39,-3620.39 1999.48,0 3620.39,1620.91 3620.39,3620.39" /><path
         id="path16"
         style="fill:#ffffff;fill-opacity:1;fill-rule:nonzero;stroke:none"
         d="M 8130,6619.61 C 8130,7205.25 7655.25,7680 7069.61,7680 c -585.63,0 -1060.38,-474.75 -1060.38,-1060.39 0,-585.63 474.75,-1060.38 1060.38,-1060.38 585.64,0 1060.39,474.75 1060.39,1060.38" /><path
         id="path18"
         style="fill:#000080;fill-opacity:1;fill-rule:nonzero;stroke:none"
         d="m 10250.8,8740.39 c 0,585.63 -474.78,1060.38 -1060.41,1060.38 C 8604.75,9800.77 8130,9326.02 8130,8740.39 8130,8154.75 8604.75,7680 9190.39,7680 c 585.63,0 1060.41,474.75 1060.41,1060.39" /><g
         transform="scale(10)"
         id="g20"><text
   id="text24"
   style="font-variant:normal;font-weight:normal;font-size:325.83499146px;font-family:Helvetica;-inkscape-font-specification:Helvetica;writing-mode:lr-tb;fill:#ffffff;fill-opacity:1;fill-rule:nonzero;stroke:none"
   transform="matrix(1,0,0,-1,285.254,330.981)"><tspan
     id="tspan22"
     y="0"
     x="0 181.16426 362.32852">Lua</tspan></text>
</g><path
         id="path26"
         style="fill:none;stroke:#808080;stroke-width:108.61199951;stroke-linecap:butt;stroke-linejoin:miter;stroke-miterlimit:10;stroke-dasharray:408.475;stroke-dashoffset:0;stroke-opacity:1"
         d="M 9740.6,7245.03 C 10075.9,6586.86 10250.8,5858.67 10250.8,5120 10250.8,2534.88 8155.12,439.227 5570,439.227 2984.88,439.227 889.227,2534.88 889.227,5120 c 0,2585.12 2095.653,4680.77 4680.773,4680.77 904.9,0 1790.41,-262.3 2549.33,-755.14" /></g></g><g
     id="g72"
     transform="matrix(7.7478091,0,0,7.7478091,820.48101,426.47906)"><path
       d="M 29.83,20 30.17,18 25,17.15 V 13 c 0,-0.08 0,-0.15 0,-0.23 l 5.06,-1.36 -0.51,-1.93 -4.83,1.29 A 9,9 0 0 0 20,5 V 2 h -2 v 2.23 a 8.81,8.81 0 0 0 -4,0 V 2 H 12 V 5 A 9,9 0 0 0 7.29,10.82 L 2.46,9.48 2,11.41 7,12.77 c 0,0.08 0,0.15 0,0.23 v 4.15 L 1.84,18 2.16,20 7,19.18 a 8.9,8.9 0 0 0 0.82,3.57 l -4.53,4.54 1.42,1.42 4.19,-4.2 a 9,9 0 0 0 14.2,0 l 4.19,4.2 1.42,-1.42 -4.54,-4.54 A 8.9,8.9 0 0 0 25,19.18 Z M 15,25.92 A 7,7 0 0 1 9,19 v -6 h 6 z M 9.29,11 a 7,7 0 0 1 13.42,0 z M 23,19 a 7,7 0 0 1 -6,6.92 V 13 h 6 z"
       id="path62" /><rect
       class="cls-1"
       width="32"
       height="32"
       id="rect64"
       x="0"
       y="0" /></g></svg>
